<svg width="188" height="53" viewBox="0 0 188 53" fill="none" xmlns="http://www.w3.org/2000/svg">
<path d="M91.0299 14.7201H83.6299V19.5401H91.0299V14.7201Z" fill="black"/>
<path d="M91.0299 21.4501H83.6299V37.7901H91.0299V21.4501Z" fill="black"/>
<path d="M125.85 20.1601C124.164 18.303 122.019 16.9232 119.63 16.1601C116.666 15.1527 113.55 14.6655 110.42 14.7201H95.8799V37.8001H110.42C113.55 37.8546 116.666 37.3675 119.63 36.3601C122.019 35.5969 124.164 34.2172 125.85 32.3601C127.278 30.6596 128.06 28.5104 128.06 26.2901C128.06 24.0698 127.278 21.9205 125.85 20.2201V20.1601ZM117.71 31.4501C115.407 32.8439 112.739 33.5161 110.05 33.3801H103.29V19.1001H110.05C112.739 18.964 115.407 19.6363 117.71 21.0301C118.587 21.5894 119.31 22.3609 119.81 23.2732C120.311 24.1856 120.573 25.2094 120.573 26.2501C120.573 27.2907 120.311 28.3145 119.81 29.2269C119.31 30.1393 118.587 30.9108 117.71 31.4701V31.4501Z" fill="black"/>
<path d="M140.46 24.8501L138.15 22.0301H135.56V24.8501H132.79V14.7101H137.97C138.913 14.6908 139.852 14.8433 140.74 15.1601C141.448 15.4094 142.072 15.853 142.54 16.4401C142.974 17.0142 143.197 17.7207 143.17 18.4401C143.205 19.1621 142.977 19.8723 142.53 20.4401C142.057 21.0243 141.425 21.4585 140.71 21.6901L143.39 24.9501L140.46 24.8501ZM139.76 17.0801C139.186 16.7436 138.524 16.5869 137.86 16.6301H135.56V20.1601H137.82C138.486 20.2054 139.149 20.0448 139.72 19.7001C139.921 19.5461 140.084 19.3478 140.196 19.1206C140.309 18.8934 140.367 18.6435 140.367 18.3901C140.367 18.1368 140.309 17.8868 140.196 17.6596C140.084 17.4325 139.921 17.2342 139.72 17.0801H139.76Z" fill="black"/>
<path d="M154.17 21.5901H147.17C147.233 21.832 147.345 22.0586 147.498 22.2562C147.65 22.4539 147.842 22.6185 148.06 22.7401C148.595 23.0367 149.2 23.1819 149.81 23.1601C150.24 23.1665 150.669 23.1057 151.08 22.9801C151.445 22.8525 151.784 22.6594 152.08 22.4101L153.5 23.7101C152.454 24.6159 151.091 25.0691 149.71 24.9701C148.765 24.9882 147.826 24.8147 146.95 24.4601C146.218 24.161 145.581 23.6663 145.11 23.0301C144.711 22.4162 144.519 21.6911 144.56 20.9601C144.551 20.22 144.775 19.4957 145.2 18.8901C145.646 18.2625 146.255 17.7682 146.96 17.4601C147.747 17.1094 148.599 16.9321 149.46 16.9401C150.303 16.9286 151.139 17.0991 151.91 17.4401C152.578 17.7521 153.148 18.2394 153.56 18.8501C153.98 19.4839 154.196 20.2304 154.18 20.9901C154.18 20.9901 154.2 21.2201 154.17 21.5901ZM147.93 19.0901C147.731 19.2267 147.561 19.4027 147.432 19.6074C147.303 19.8121 147.217 20.041 147.18 20.2801H151.71C151.672 20.0428 151.586 19.8158 151.457 19.6129C151.328 19.4101 151.159 19.2356 150.96 19.1001C150.519 18.7913 149.989 18.6334 149.45 18.6501C148.91 18.634 148.378 18.7879 147.93 19.0901Z" fill="black"/>
<path d="M162.74 17.81C163.13 18.1156 163.438 18.513 163.637 18.9667C163.836 19.4203 163.919 19.9162 163.88 20.41V24.85H161.39V23.85C161.049 24.2577 160.611 24.5737 160.117 24.7693C159.623 24.9649 159.088 25.0339 158.56 24.97C157.933 24.9837 157.31 24.882 156.72 24.67C156.258 24.501 155.851 24.2108 155.54 23.83C155.368 23.607 155.246 23.3502 155.18 23.0766C155.115 22.803 155.108 22.5186 155.16 22.2421C155.212 21.9655 155.321 21.7031 155.482 21.4718C155.642 21.2406 155.849 21.0457 156.09 20.9C157.012 20.4165 158.052 20.2017 159.09 20.28H161.21C161.224 20.0608 161.183 19.8415 161.091 19.6423C160.998 19.4431 160.857 19.2704 160.68 19.14C160.207 18.8381 159.649 18.6977 159.09 18.74C158.603 18.7412 158.119 18.8085 157.65 18.94C157.222 19.0487 156.813 19.2242 156.44 19.46L155.49 17.89C156.049 17.5634 156.657 17.3271 157.29 17.19C157.998 17.0258 158.723 16.9419 159.45 16.94C160.612 16.8657 161.767 17.171 162.74 17.81ZM160.46 23.16C160.801 23.0016 161.069 22.7191 161.21 22.37V21.57H159.38C158.29 21.57 157.74 21.88 157.74 22.49C157.74 22.6312 157.779 22.7696 157.851 22.891C157.923 23.0123 158.026 23.1121 158.15 23.18C158.487 23.3617 158.867 23.4481 159.25 23.43C159.669 23.4377 160.084 23.3452 160.46 23.16Z" fill="black"/>
<path d="M166.29 14.1001H168.96V24.8501H166.29V14.1001Z" fill="black"/>
<path d="M142.1 35.9701V37.8501H132.83V27.7101H141.83V29.5901H135.56V31.8001H141.11V33.6201H135.56V35.9701H142.1Z" fill="black"/>
<path d="M144.9 37.7301C144.295 37.614 143.709 37.412 143.16 37.1301L144.05 35.5001C144.52 35.7501 145.021 35.9351 145.54 36.0501C146.1 36.1876 146.674 36.2581 147.25 36.2601C148.38 36.2601 148.94 36.0201 148.94 35.5501C148.94 35.3301 148.79 35.1701 148.48 35.0701C148.016 34.943 147.54 34.8593 147.06 34.8201C146.433 34.7523 145.812 34.6421 145.2 34.4901C144.725 34.3743 144.286 34.1443 143.92 33.8201C143.735 33.6475 143.591 33.4359 143.497 33.2007C143.404 32.9656 143.364 32.7126 143.38 32.4601C143.377 31.9744 143.56 31.506 143.89 31.1501C144.29 30.7249 144.798 30.4172 145.36 30.2601C146.099 30.034 146.868 29.926 147.64 29.9401C148.286 29.9544 148.928 30.028 149.56 30.1601C150.114 30.2532 150.652 30.4214 151.16 30.6601L150.27 32.2701C149.443 31.877 148.536 31.6786 147.62 31.6901C147.184 31.6685 146.749 31.7366 146.34 31.8901C146.05 32.0301 145.91 32.2001 145.91 32.4201C145.91 32.6401 146.06 32.8301 146.37 32.9201C146.852 33.0524 147.343 33.146 147.84 33.2001C148.463 33.2792 149.08 33.3927 149.69 33.5401C150.155 33.6536 150.584 33.8803 150.94 34.2001C151.119 34.3703 151.26 34.5773 151.351 34.8069C151.443 35.0365 151.483 35.2832 151.47 35.5301C151.471 36.0113 151.285 36.4741 150.95 36.8201C150.54 37.24 150.026 37.5436 149.46 37.7001C148.699 37.9172 147.911 38.0217 147.12 38.0101C146.372 37.9965 145.628 37.9026 144.9 37.7301Z" fill="black"/>
<path d="M159.06 37.4701C158.754 37.657 158.414 37.7827 158.06 37.8401C157.666 37.9299 157.264 37.9736 156.86 37.9701C155.957 38.0274 155.062 37.7771 154.32 37.2601C154.016 37.0072 153.776 36.6861 153.62 36.3229C153.463 35.9597 153.395 35.5647 153.42 35.1701V31.9701H152V30.2301H153.42V28.3301H156.09V30.2301H158.38V31.9701H156.09V35.1601C156.084 35.3007 156.107 35.4412 156.159 35.5721C156.211 35.7031 156.289 35.8217 156.39 35.9201C156.626 36.1126 156.926 36.209 157.23 36.1901C157.611 36.2021 157.987 36.1012 158.31 35.9001L159.06 37.4701Z" fill="black"/>
<path d="M167.56 30.8001C167.946 31.1092 168.251 31.5071 168.45 31.9599C168.648 32.4127 168.734 32.9069 168.7 33.4001V37.8501H166.21V36.8501C165.868 37.2493 165.432 37.5577 164.942 37.7479C164.452 37.9381 163.922 38.0041 163.4 37.9401C162.773 37.9549 162.148 37.8496 161.56 37.6301C161.096 37.4656 160.687 37.1747 160.38 36.7901C160.107 36.4466 159.962 36.0188 159.97 35.5801C159.967 35.2313 160.058 34.8881 160.234 34.587C160.41 34.2859 160.664 34.0382 160.97 33.8701C161.892 33.3847 162.931 33.1665 163.97 33.2401H166.09C166.093 33.0311 166.046 32.8244 165.954 32.6368C165.862 32.4491 165.727 32.2858 165.56 32.1601C165.086 31.8608 164.529 31.7206 163.97 31.7601C163.48 31.758 162.993 31.8219 162.52 31.9501C162.094 32.0619 161.689 32.2408 161.32 32.4801L160.32 30.9001C160.88 30.5768 161.487 30.3439 162.12 30.2101C162.827 30.0409 163.553 29.957 164.28 29.9601C165.435 29.8841 166.584 30.1783 167.56 30.8001ZM165.28 36.1601C165.622 35.9989 165.892 35.7178 166.04 35.3701V34.5701H164.21C163.11 34.5701 162.56 34.8801 162.56 35.4801C162.56 35.6213 162.599 35.7597 162.671 35.8811C162.743 36.0024 162.846 36.1022 162.97 36.1701C163.304 36.3608 163.686 36.451 164.07 36.4301C164.489 36.439 164.904 36.3464 165.28 36.1601Z" fill="black"/>
<path d="M177.05 37.4701C176.742 37.6535 176.403 37.7789 176.05 37.8401C175.653 37.9304 175.247 37.9741 174.84 37.9701C173.941 38.0251 173.05 37.7749 172.31 37.2601C172.006 37.0072 171.766 36.6861 171.61 36.3229C171.453 35.9597 171.385 35.5647 171.41 35.1701V31.9701H169.99V30.2301H171.41V28.3301H174.07V30.2301H176.37V31.9701H174.07V35.1601C174.064 35.3007 174.087 35.4412 174.139 35.5721C174.191 35.7031 174.27 35.8217 174.37 35.9201C174.61 36.1124 174.913 36.2086 175.22 36.1901C175.6 36.1981 175.975 36.0975 176.3 35.9001L177.05 37.4701Z" fill="black"/>
<path d="M187.22 34.59H180.22C180.283 34.8321 180.394 35.059 180.547 35.2567C180.7 35.4544 180.892 35.6189 181.11 35.74C181.641 36.0353 182.243 36.1804 182.85 36.16C183.284 36.1669 183.716 36.1062 184.13 35.98C184.494 35.845 184.832 35.6489 185.13 35.4L186.55 36.71C185.5 37.6155 184.134 38.0684 182.75 37.97C181.807 37.989 180.871 37.8119 180 37.45C179.265 37.1548 178.625 36.6637 178.15 36.03C177.734 35.4201 177.511 34.6987 177.511 33.96C177.511 33.2214 177.734 32.5 178.15 31.89C178.594 31.2603 179.203 30.7654 179.91 30.46C180.695 30.1031 181.549 29.9255 182.41 29.94C183.252 29.9311 184.087 30.098 184.86 30.43C185.555 30.729 186.149 31.222 186.57 31.85C186.996 32.4776 187.216 33.2219 187.2 33.98C187.2 33.98 187.25 34.21 187.22 34.59ZM180.98 32.09C180.782 32.2255 180.613 32.4 180.484 32.6028C180.355 32.8057 180.269 33.0327 180.23 33.27H184.76C184.67 32.7929 184.397 32.3698 184 32.09C183.551 31.8066 183.031 31.6562 182.5 31.6562C181.969 31.6562 181.449 31.8066 181 32.09H180.98Z" fill="black"/>
<path d="M91.0299 14.7201H83.6299V19.5401H91.0299V14.7201Z" fill="black"/>
<path d="M91.0299 21.4501H83.6299V37.7901H91.0299V21.4501Z" fill="black"/>
<path d="M125.85 20.1601C124.164 18.303 122.019 16.9232 119.63 16.1601C116.666 15.1527 113.55 14.6655 110.42 14.7201H95.8799V37.8001H110.42C113.55 37.8546 116.666 37.3675 119.63 36.3601C122.019 35.5969 124.164 34.2172 125.85 32.3601C127.278 30.6596 128.06 28.5104 128.06 26.2901C128.06 24.0698 127.278 21.9205 125.85 20.2201V20.1601ZM117.71 31.4501C115.407 32.8439 112.739 33.5161 110.05 33.3801H103.29V19.1001H110.05C112.739 18.964 115.407 19.6363 117.71 21.0301C118.587 21.5894 119.31 22.3609 119.81 23.2732C120.311 24.1856 120.573 25.2094 120.573 26.2501C120.573 27.2907 120.311 28.3145 119.81 29.2269C119.31 30.1393 118.587 30.9108 117.71 31.4701V31.4501Z" fill="black"/>
<path d="M140.46 24.8501L138.15 22.0301H135.56V24.8501H132.79V14.7101H137.97C138.913 14.6908 139.852 14.8433 140.74 15.1601C141.448 15.4094 142.072 15.853 142.54 16.4401C142.974 17.0142 143.197 17.7207 143.17 18.4401C143.205 19.1621 142.977 19.8723 142.53 20.4401C142.057 21.0243 141.425 21.4585 140.71 21.6901L143.39 24.9501L140.46 24.8501ZM139.76 17.0801C139.186 16.7436 138.524 16.5869 137.86 16.6301H135.56V20.1601H137.82C138.486 20.2054 139.149 20.0448 139.72 19.7001C139.921 19.5461 140.084 19.3478 140.196 19.1206C140.309 18.8934 140.367 18.6435 140.367 18.3901C140.367 18.1368 140.309 17.8868 140.196 17.6596C140.084 17.4325 139.921 17.2342 139.72 17.0801H139.76Z" fill="black"/>
<path d="M154.17 21.5901H147.17C147.233 21.832 147.345 22.0586 147.498 22.2562C147.65 22.4539 147.842 22.6185 148.06 22.7401C148.595 23.0367 149.2 23.1819 149.81 23.1601C150.24 23.1665 150.669 23.1057 151.08 22.9801C151.445 22.8525 151.784 22.6594 152.08 22.4101L153.5 23.7101C152.454 24.6159 151.091 25.0691 149.71 24.9701C148.765 24.9882 147.826 24.8147 146.95 24.4601C146.218 24.161 145.581 23.6663 145.11 23.0301C144.711 22.4162 144.519 21.6911 144.56 20.9601C144.551 20.22 144.775 19.4957 145.2 18.8901C145.646 18.2625 146.255 17.7682 146.96 17.4601C147.747 17.1094 148.599 16.9321 149.46 16.9401C150.303 16.9286 151.139 17.0991 151.91 17.4401C152.578 17.7521 153.148 18.2394 153.56 18.8501C153.98 19.4839 154.196 20.2304 154.18 20.9901C154.18 20.9901 154.2 21.2201 154.17 21.5901ZM147.93 19.0901C147.731 19.2267 147.561 19.4027 147.432 19.6074C147.303 19.8121 147.217 20.041 147.18 20.2801H151.71C151.672 20.0428 151.586 19.8158 151.457 19.6129C151.328 19.4101 151.159 19.2356 150.96 19.1001C150.519 18.7913 149.989 18.6334 149.45 18.6501C148.91 18.634 148.378 18.7879 147.93 19.0901Z" fill="black"/>
<path d="M162.74 17.81C163.13 18.1156 163.438 18.513 163.637 18.9667C163.836 19.4203 163.919 19.9162 163.88 20.41V24.85H161.39V23.85C161.049 24.2577 160.611 24.5737 160.117 24.7693C159.623 24.9649 159.088 25.0339 158.56 24.97C157.933 24.9837 157.31 24.882 156.72 24.67C156.258 24.501 155.851 24.2108 155.54 23.83C155.368 23.607 155.246 23.3502 155.18 23.0766C155.115 22.803 155.108 22.5186 155.16 22.2421C155.212 21.9655 155.321 21.7031 155.482 21.4718C155.642 21.2406 155.849 21.0457 156.09 20.9C157.012 20.4165 158.052 20.2017 159.09 20.28H161.21C161.224 20.0608 161.183 19.8415 161.091 19.6423C160.998 19.4431 160.857 19.2704 160.68 19.14C160.207 18.8381 159.649 18.6977 159.09 18.74C158.603 18.7412 158.119 18.8085 157.65 18.94C157.222 19.0487 156.813 19.2242 156.44 19.46L155.49 17.89C156.049 17.5634 156.657 17.3271 157.29 17.19C157.998 17.0258 158.723 16.9419 159.45 16.94C160.612 16.8657 161.767 17.171 162.74 17.81ZM160.46 23.16C160.801 23.0016 161.069 22.7191 161.21 22.37V21.57H159.38C158.29 21.57 157.74 21.88 157.74 22.49C157.74 22.6312 157.779 22.7696 157.851 22.891C157.923 23.0123 158.026 23.1121 158.15 23.18C158.487 23.3617 158.867 23.4481 159.25 23.43C159.669 23.4377 160.084 23.3452 160.46 23.16Z" fill="black"/>
<path d="M166.29 14.1001H168.96V24.8501H166.29V14.1001Z" fill="black"/>
<path d="M142.1 35.9701V37.8501H132.83V27.7101H141.83V29.5901H135.56V31.8001H141.11V33.6201H135.56V35.9701H142.1Z" fill="black"/>
<path d="M144.9 37.7301C144.295 37.614 143.709 37.412 143.16 37.1301L144.05 35.5001C144.52 35.7501 145.021 35.9351 145.54 36.0501C146.1 36.1876 146.674 36.2581 147.25 36.2601C148.38 36.2601 148.94 36.0201 148.94 35.5501C148.94 35.3301 148.79 35.1701 148.48 35.0701C148.016 34.943 147.54 34.8593 147.06 34.8201C146.433 34.7523 145.812 34.6421 145.2 34.4901C144.725 34.3743 144.286 34.1443 143.92 33.8201C143.735 33.6475 143.591 33.4359 143.497 33.2007C143.404 32.9656 143.364 32.7126 143.38 32.4601C143.377 31.9744 143.56 31.506 143.89 31.1501C144.29 30.7249 144.798 30.4172 145.36 30.2601C146.099 30.034 146.868 29.926 147.64 29.9401C148.286 29.9544 148.928 30.028 149.56 30.1601C150.114 30.2532 150.652 30.4214 151.16 30.6601L150.27 32.2701C149.443 31.877 148.536 31.6786 147.62 31.6901C147.184 31.6685 146.749 31.7366 146.34 31.8901C146.05 32.0301 145.91 32.2001 145.91 32.4201C145.91 32.6401 146.06 32.8301 146.37 32.9201C146.852 33.0524 147.343 33.146 147.84 33.2001C148.463 33.2792 149.08 33.3927 149.69 33.5401C150.155 33.6536 150.584 33.8803 150.94 34.2001C151.119 34.3703 151.26 34.5773 151.351 34.8069C151.443 35.0365 151.483 35.2832 151.47 35.5301C151.471 36.0113 151.285 36.4741 150.95 36.8201C150.54 37.24 150.026 37.5436 149.46 37.7001C148.699 37.9172 147.911 38.0217 147.12 38.0101C146.372 37.9965 145.628 37.9026 144.9 37.7301Z" fill="black"/>
<path d="M159.06 37.4701C158.754 37.657 158.414 37.7827 158.06 37.8401C157.666 37.9299 157.264 37.9736 156.86 37.9701C155.957 38.0274 155.062 37.7771 154.32 37.2601C154.016 37.0072 153.776 36.6861 153.62 36.3229C153.463 35.9597 153.395 35.5647 153.42 35.1701V31.9701H152V30.2301H153.42V28.3301H156.09V30.2301H158.38V31.9701H156.09V35.1601C156.084 35.3007 156.107 35.4412 156.159 35.5721C156.211 35.7031 156.289 35.8217 156.39 35.9201C156.626 36.1126 156.926 36.209 157.23 36.1901C157.611 36.2021 157.987 36.1012 158.31 35.9001L159.06 37.4701Z" fill="black"/>
<path d="M167.56 30.8001C167.946 31.1092 168.251 31.5071 168.45 31.9599C168.648 32.4127 168.734 32.9069 168.7 33.4001V37.8501H166.21V36.8501C165.868 37.2493 165.432 37.5577 164.942 37.7479C164.452 37.9381 163.922 38.0041 163.4 37.9401C162.773 37.9549 162.148 37.8496 161.56 37.6301C161.096 37.4656 160.687 37.1747 160.38 36.7901C160.107 36.4466 159.962 36.0188 159.97 35.5801C159.967 35.2313 160.058 34.8881 160.234 34.587C160.41 34.2859 160.664 34.0382 160.97 33.8701C161.892 33.3847 162.931 33.1665 163.97 33.2401H166.09C166.093 33.0311 166.046 32.8244 165.954 32.6368C165.862 32.4491 165.727 32.2858 165.56 32.1601C165.086 31.8608 164.529 31.7206 163.97 31.7601C163.48 31.758 162.993 31.8219 162.52 31.9501C162.094 32.0619 161.689 32.2408 161.32 32.4801L160.32 30.9001C160.88 30.5768 161.487 30.3439 162.12 30.2101C162.827 30.0409 163.553 29.957 164.28 29.9601C165.435 29.8841 166.584 30.1783 167.56 30.8001ZM165.28 36.1601C165.622 35.9989 165.892 35.7178 166.04 35.3701V34.5701H164.21C163.11 34.5701 162.56 34.8801 162.56 35.4801C162.56 35.6213 162.599 35.7597 162.671 35.8811C162.743 36.0024 162.846 36.1022 162.97 36.1701C163.304 36.3608 163.686 36.451 164.07 36.4301C164.489 36.439 164.904 36.3464 165.28 36.1601Z" fill="black"/>
<path d="M177.05 37.4701C176.742 37.6535 176.403 37.7789 176.05 37.8401C175.653 37.9304 175.247 37.9741 174.84 37.9701C173.941 38.0251 173.05 37.7749 172.31 37.2601C172.006 37.0072 171.766 36.6861 171.61 36.3229C171.453 35.9597 171.385 35.5647 171.41 35.1701V31.9701H169.99V30.2301H171.41V28.3301H174.07V30.2301H176.37V31.9701H174.07V35.1601C174.064 35.3007 174.087 35.4412 174.139 35.5721C174.191 35.7031 174.27 35.8217 174.37 35.9201C174.61 36.1124 174.913 36.2086 175.22 36.1901C175.6 36.1981 175.975 36.0975 176.3 35.9001L177.05 37.4701Z" fill="black"/>
<path d="M187.22 34.59H180.22C180.283 34.8321 180.394 35.059 180.547 35.2567C180.7 35.4544 180.892 35.6189 181.11 35.74C181.641 36.0353 182.243 36.1804 182.85 36.16C183.284 36.1669 183.716 36.1062 184.13 35.98C184.494 35.845 184.832 35.6489 185.13 35.4L186.55 36.71C185.5 37.6155 184.134 38.0684 182.75 37.97C181.807 37.989 180.871 37.8119 180 37.45C179.265 37.1548 178.625 36.6637 178.15 36.03C177.734 35.4201 177.511 34.6987 177.511 33.96C177.511 33.2214 177.734 32.5 178.15 31.89C178.594 31.2603 179.203 30.7654 179.91 30.46C180.695 30.1031 181.549 29.9255 182.41 29.94C183.252 29.9311 184.087 30.098 184.86 30.43C185.555 30.729 186.149 31.222 186.57 31.85C186.996 32.4776 187.216 33.2219 187.2 33.98C187.2 33.98 187.25 34.21 187.22 34.59ZM180.98 32.09C180.782 32.2255 180.613 32.4 180.484 32.6028C180.355 32.8057 180.269 33.0327 180.23 33.27H184.76C184.67 32.7929 184.397 32.3698 184 32.09C183.551 31.8066 183.031 31.6562 182.5 31.6562C181.969 31.6562 181.449 31.8066 181 32.09H180.98Z" fill="black"/>
<path d="M72.9101 5.59004V11.59L14.8101 10.42H0.870117V9.42004H14.8101V1.92004H0.870117V0.920044H14.8101L72.9101 5.59004ZM0.910118 15.25V16.25H14.8101V52.45L69.7201 38.55L72.9101 37.75V14.66L14.8101 15.25H0.910118Z" fill="black"/>
</svg>
