<svg width="31" height="42" viewBox="0 0 31 42" fill="none" xmlns="http://www.w3.org/2000/svg">
<path d="M15.9897 27C22.6172 27 27.9897 21.6274 27.9897 15C27.9897 8.37258 22.6172 3 15.9897 3C9.36233 3 3.98975 8.37258 3.98975 15C3.98975 21.6274 9.36233 27 15.9897 27Z" fill="white"/>
<path d="M15.96 6C17.74 6 19.48 6.52785 20.9601 7.51678C22.4401 8.50572 23.5937 9.91131 24.2749 11.5558C24.9561 13.2004 25.1343 15.01 24.787 16.7558C24.4397 18.5016 23.5827 20.1053 22.324 21.364C21.0653 22.6226 19.4617 23.4798 17.7158 23.8271C15.97 24.1744 14.1604 23.9961 12.5159 23.3149C10.8713 22.6338 9.46562 21.4802 8.47669 20.0001C7.48776 18.5201 6.95997 16.78 6.95997 15C6.95997 12.6131 7.90813 10.3239 9.59595 8.63605C11.2838 6.94822 13.573 6 15.96 6ZM15.96 0C12.9932 0 10.0932 0.879733 7.62647 2.52795C5.15973 4.17618 3.23713 6.51887 2.10181 9.25977C0.966498 12.0007 0.669397 15.0166 1.24818 17.9263C1.82695 20.836 3.25561 23.5088 5.3534 25.6066C7.45119 27.7044 10.1239 29.133 13.0336 29.7118C15.9433 30.2906 18.9593 29.9935 21.7002 28.8582C24.4411 27.7229 26.7838 25.8003 28.432 23.3336C30.0802 20.8668 30.96 17.9667 30.96 15C30.96 11.0218 29.3796 7.20642 26.5665 4.39337C23.7535 1.58033 19.9382 0 15.96 0Z" fill="#0078FA"/>
<path d="M15.9897 42V29.43" stroke="#0078FA" stroke-width="2.82" stroke-miterlimit="10"/>
</svg>
