<svg width="109" height="229" viewBox="0 0 109 229" fill="none" xmlns="http://www.w3.org/2000/svg">
<path d="M0.000183105 204.903H7.73319V228.995H0.000183105V204.903Z" fill="black"/>
<path d="M12.7917 204.903H27.9668C31.2349 204.845 34.4882 205.353 37.5833 206.404C40.0819 207.211 42.3221 208.666 44.076 210.62C45.5982 212.374 46.4229 214.627 46.3933 216.949C46.4232 219.273 45.5985 221.527 44.076 223.284C42.3209 225.236 40.0811 226.691 37.5833 227.5C34.4873 228.546 31.2344 229.052 27.9668 228.995H12.7917V204.903ZM27.5942 224.417C30.9358 224.417 33.602 223.746 35.5926 222.406C36.5212 221.834 37.2846 221.03 37.8073 220.073C38.3301 219.116 38.5943 218.039 38.5736 216.949C38.5944 215.86 38.3303 214.783 37.8075 213.827C37.2846 212.871 36.5212 212.068 35.5926 211.498C33.602 210.154 30.9358 209.481 27.5942 209.481H20.5349V224.417H27.5942Z" fill="black"/>
<path d="M71.1137 228.995L64.672 222.283H57.5566V228.995H49.8286V204.903H64.2891C66.8983 204.853 69.4991 205.213 71.9967 205.97C73.9131 206.521 75.6506 207.566 77.0346 209.002C78.1936 210.268 78.8237 211.93 78.7956 213.647C78.8256 215.364 78.1846 217.024 77.0091 218.276C75.5995 219.701 73.8387 220.727 71.9048 221.252L79.398 228.995H71.1137ZM69.1587 210.533C67.9507 209.808 66.1845 209.446 63.8603 209.446H57.5566V217.847H63.8603C66.1845 217.847 67.9507 217.48 69.1587 216.745C69.7159 216.444 70.1797 215.996 70.4993 215.45C70.8189 214.903 70.982 214.28 70.9708 213.647C70.9856 213.01 70.823 212.381 70.5012 211.831C70.1794 211.281 69.7111 210.832 69.1485 210.533H69.1587Z" fill="black"/>
<path d="M108.39 224.524V228.995H82.5218V204.903H107.768V209.379H90.2038V214.611H105.716V218.94H90.2038V224.519L108.39 224.524Z" fill="black"/>
<path d="M106.859 167.483V167.488L102.158 168.677H102.138L106.859 167.483Z" fill="black"/>
<path d="M106.859 167.483V167.488L102.158 168.677L20.6828 189.289L102.138 168.677L106.859 167.483Z" fill="white"/>
<path d="M102.138 168.678L20.6828 189.289L102.158 168.678L106.859 167.488L102.138 168.678Z" fill="white"/>
<path d="M3.05176e-05 0.984863V190.866H20.6828L108.39 168.672V0.984863H3.05176e-05Z" fill="black"/>
<path d="M106.859 119.727V128.7L20.6828 126.954H9.15527e-05V125.423H20.6828V114.285L20.6216 114.28H9.15527e-05V112.749H20.6828L106.859 119.727Z" fill="white"/>
<path d="M106.859 133.182V167.483L102.138 168.677L20.6828 189.288V135.586H9.15527e-05V134.054H20.6828L106.859 133.182Z" fill="url(#paint0_linear_49_451)"/>
<defs>
<linearGradient id="paint0_linear_49_451" x1="104.077" y1="176.609" x2="20.1111" y2="144.58" gradientUnits="userSpaceOnUse">
<stop offset="0.03" stop-color="#18BEFF"/>
<stop offset="1" stop-color="white"/>
</linearGradient>
</defs>
</svg>
